<?xml version="1.0" encoding="utf-8"?>
<!-- Generator: Adobe Illustrator 22.1.0, SVG Export Plug-In . SVG Version: 6.00 Build 0)  -->
<svg version="1.1" xmlns="http://www.w3.org/2000/svg" xmlns:xlink="http://www.w3.org/1999/xlink" x="0px" y="0px"
	 viewBox="0 0 192 192" style="enable-background:new 0 0 192 192;" xml:space="preserve">
<style type="text/css">
	.st0{fill:#F3F3F3;}
	.st1{fill:#F44336;}
	.st2{fill:#AA2E25;}
	.st3{fill:#00C853;}
	.st4{fill:#008C3A;}
	.st5{display:none;}
	.st6{display:inline;fill:#00C853;}
	.st7{display:inline;fill:#008C3A;}
</style>
<g id="Layer_5">
	<g id="plate">
		<circle class="st0" cx="96" cy="96" r="88"/>
	</g>
</g>
<g id="Layer_4">
	<g>
		<g>
			<path class="st1" d="M96,146.1c-27.6,0-50.1-22.5-50.1-50.1c0-27.6,22.5-50.1,50.1-50.1s50.1,22.5,50.1,50.1
				C146.1,123.6,123.6,146.1,96,146.1z"/>
			<g>
				<path class="st2" d="M96,48.2c26.3,0,47.7,21.4,47.7,47.7s-21.4,47.7-47.7,47.7S48.3,122.3,48.3,96S69.7,48.2,96,48.2 M96,43.5
					C67,43.5,43.5,67,43.5,96S67,148.5,96,148.5s52.5-23.5,52.5-52.5S125,43.5,96,43.5L96,43.5z"/>
			</g>
		</g>
		<g>
			<ellipse class="st3" cx="96" cy="53" rx="25.8" ry="7.2"/>
			<g>
				<path class="st4" d="M96,48.2c7.3,0,14.4,1.6,20.8,4.8c-6.4,3.1-13.5,4.8-20.8,4.8S81.6,56.1,75.2,53
					C81.6,49.9,88.7,48.2,96,48.2 M96,43.5c-11.2,0-21.6,3.5-30.2,9.5c8.5,6,19,9.5,30.2,9.5s21.6-3.5,30.2-9.5
					C117.6,47,107.2,43.5,96,43.5L96,43.5z"/>
			</g>
		</g>
		<g>
			<path class="st3" d="M114.3,71.3c-8.8-2.2-16.8-6.7-23.3-13.2s-11-14.5-13.2-23.3c8.8,2.2,16.8,6.7,23.3,13.2
				C107.6,54.4,112.1,62.4,114.3,71.3z"/>
			<g>
				<path class="st4" d="M81.3,38.3c6.8,2.3,12.9,6.2,18.1,11.4c5.2,5.2,9,11.3,11.4,18.1c-6.8-2.3-12.9-6.2-18.1-11.4
					C87.5,51.2,83.6,45,81.3,38.3 M74.7,31.7c1.8,10.3,6.7,20.2,14.6,28.1s17.8,12.8,28.1,14.6c-1.8-10.3-6.7-20.2-14.6-28.1
					C94.8,38.3,84.9,33.4,74.7,31.7L74.7,31.7z"/>
			</g>
		</g>
		<g>
			<path class="st3" d="M77.7,71.3c2.2-8.8,6.7-16.8,13.2-23.3s14.5-11,23.3-13.2c-2.2,8.8-6.7,16.8-13.2,23.3
				C94.6,64.6,86.6,69.1,77.7,71.3z"/>
			<g>
				<path class="st4" d="M110.7,38.3c-2.3,6.8-6.2,12.9-11.4,18.1c-5.2,5.2-11.3,9-18.1,11.4c2.3-6.8,6.2-12.9,11.4-18.1
					C97.8,44.5,104,40.6,110.7,38.3 M117.3,31.7c-10.3,1.8-20.2,6.7-28.1,14.6c-7.9,7.9-12.8,17.8-14.6,28.1
					c10.3-1.8,20.2-6.7,28.1-14.6S115.6,41.9,117.3,31.7L117.3,31.7z"/>
			</g>
		</g>
		<g>
			<path class="st3" d="M114.3,71.3c-6.1-1.5-11.7-4.1-16.9-7.8l-1.4-1l-1.4,1c-5.1,3.7-10.8,6.3-16.9,7.8c0.9-3.6,2.2-7,3.8-10.3
				l1.2-2.5l-2.6-0.9c-3.5-1.2-6.9-2.7-10-4.6c3.1-1.9,6.5-3.4,10-4.6l2.6-0.9l-1.2-2.5c-1.7-3.3-2.9-6.8-3.8-10.3
				c6.1,1.5,11.7,4.1,16.9,7.8l1.4,1l1.4-1c5.1-3.7,10.8-6.3,16.9-7.8c-0.9,3.6-2.2,7-3.8,10.3l-1.2,2.5l2.6,0.9
				c3.5,1.2,6.9,2.7,10,4.6c-3.1,1.9-6.5,3.4-10,4.6l-2.6,0.9l1.2,2.5C112.1,64.2,113.4,67.7,114.3,71.3z"/>
			<g>
				<path class="st4" d="M110.7,38.3c-0.7,2-1.5,3.9-2.4,5.7l-2.5,4.9l5.2,1.7c2,0.7,3.9,1.4,5.7,2.3c-1.9,0.9-3.8,1.7-5.7,2.3
					l-5.2,1.7l2.5,4.9c0.9,1.9,1.7,3.8,2.4,5.7c-4.2-1.5-8.2-3.5-12-6.2l-2.8-2l-2.8,2c-3.7,2.6-7.7,4.7-12,6.2
					c0.7-2,1.5-3.9,2.4-5.7l2.5-4.9l-5.2-1.7c-2-0.7-3.9-1.4-5.7-2.3c1.9-0.9,3.8-1.7,5.7-2.3l5.2-1.7L83.7,44
					c-0.9-1.9-1.7-3.8-2.4-5.7c4.2,1.5,8.2,3.5,12,6.2l2.8,2l2.8-2C102.5,41.8,106.5,39.7,110.7,38.3 M117.3,31.7
					c-7.5,1.3-14.9,4.3-21.3,8.9c-6.5-4.6-13.8-7.6-21.3-8.9c0.9,5,2.5,9.9,4.8,14.5c-4.9,1.6-9.5,4-13.6,6.9
					c4.1,2.9,8.7,5.2,13.6,6.9c-2.3,4.6-3.9,9.5-4.8,14.5c7.5-1.3,14.9-4.3,21.3-8.9c6.5,4.6,13.8,7.6,21.3,8.9
					c-0.9-5-2.5-9.9-4.8-14.5c4.9-1.6,9.5-4,13.6-6.9c-4.1-2.9-8.7-5.2-13.6-6.9C114.9,41.5,116.5,36.6,117.3,31.7L117.3,31.7z"/>
			</g>
		</g>
		<g class="st5">
			<ellipse transform="matrix(0.9239 -0.3827 0.3827 0.9239 3.4633 37.5022)" class="st6" cx="96" cy="10" rx="50.1" ry="50.1"/>
			<path class="st7" d="M96-37.7c26.3,0,47.7,21.4,47.7,47.7S122.3,57.8,96,57.8S48.3,36.4,48.3,10S69.7-37.7,96-37.7 M96-42.5
				c-29,0-52.5,23.5-52.5,52.5S67,62.5,96,62.5S148.5,39,148.5,10S125-42.5,96-42.5L96-42.5z"/>
		</g>
	</g>
</g>
<g id="Layer_4_copy">
	<g>
		<g>
			<path class="st1" d="M96,146.1c-27.6,0-50.1-22.5-50.1-50.1c0-27.6,22.5-50.1,50.1-50.1s50.1,22.5,50.1,50.1
				C146.1,123.6,123.6,146.1,96,146.1z"/>
			<g>
				<path class="st2" d="M96,48.2c26.3,0,47.7,21.4,47.7,47.7s-21.4,47.7-47.7,47.7S48.3,122.3,48.3,96S69.7,48.2,96,48.2 M96,43.5
					C67,43.5,43.5,67,43.5,96S67,148.5,96,148.5s52.5-23.5,52.5-52.5S125,43.5,96,43.5L96,43.5z"/>
			</g>
		</g>
		<g>
			<ellipse class="st3" cx="96" cy="53" rx="25.8" ry="7.2"/>
			<g>
				<path class="st4" d="M96,48.2c7.3,0,14.4,1.6,20.8,4.8c-6.4,3.1-13.5,4.8-20.8,4.8S81.6,56.1,75.2,53
					C81.6,49.9,88.7,48.2,96,48.2 M96,43.5c-11.2,0-21.6,3.5-30.2,9.5c8.5,6,19,9.5,30.2,9.5s21.6-3.5,30.2-9.5
					C117.6,47,107.2,43.5,96,43.5L96,43.5z"/>
			</g>
		</g>
		<g>
			<path class="st3" d="M114.3,71.3c-8.8-2.2-16.8-6.7-23.3-13.2s-11-14.5-13.2-23.3c8.8,2.2,16.8,6.7,23.3,13.2
				C107.6,54.4,112.1,62.4,114.3,71.3z"/>
			<g>
				<path class="st4" d="M81.3,38.3c6.8,2.3,12.9,6.2,18.1,11.4c5.2,5.2,9,11.3,11.4,18.1c-6.8-2.3-12.9-6.2-18.1-11.4
					C87.5,51.2,83.6,45,81.3,38.3 M74.7,31.7c1.8,10.3,6.7,20.2,14.6,28.1s17.8,12.8,28.1,14.6c-1.8-10.3-6.7-20.2-14.6-28.1
					C94.8,38.3,84.9,33.4,74.7,31.7L74.7,31.7z"/>
			</g>
		</g>
		<g>
			<path class="st3" d="M77.7,71.3c2.2-8.8,6.7-16.8,13.2-23.3s14.5-11,23.3-13.2c-2.2,8.8-6.7,16.8-13.2,23.3
				C94.6,64.6,86.6,69.1,77.7,71.3z"/>
			<g>
				<path class="st4" d="M110.7,38.3c-2.3,6.8-6.2,12.9-11.4,18.1c-5.2,5.2-11.3,9-18.1,11.4c2.3-6.8,6.2-12.9,11.4-18.1
					C97.8,44.5,104,40.6,110.7,38.3 M117.3,31.7c-10.3,1.8-20.2,6.7-28.1,14.6c-7.9,7.9-12.8,17.8-14.6,28.1
					c10.3-1.8,20.2-6.7,28.1-14.6S115.6,41.9,117.3,31.7L117.3,31.7z"/>
			</g>
		</g>
		<g>
			<path class="st3" d="M114.3,71.3c-6.1-1.5-11.7-4.1-16.9-7.8l-1.4-1l-1.4,1c-5.1,3.7-10.8,6.3-16.9,7.8c0.9-3.6,2.2-7,3.8-10.3
				l1.2-2.5l-2.6-0.9c-3.5-1.2-6.9-2.7-10-4.6c3.1-1.9,6.5-3.4,10-4.6l2.6-0.9l-1.2-2.5c-1.7-3.3-2.9-6.8-3.8-10.3
				c6.1,1.5,11.7,4.1,16.9,7.8l1.4,1l1.4-1c5.1-3.7,10.8-6.3,16.9-7.8c-0.9,3.6-2.2,7-3.8,10.3l-1.2,2.5l2.6,0.9
				c3.5,1.2,6.9,2.7,10,4.6c-3.1,1.9-6.5,3.4-10,4.6l-2.6,0.9l1.2,2.5C112.1,64.2,113.4,67.7,114.3,71.3z"/>
			<g>
				<path class="st4" d="M110.7,38.3c-0.7,2-1.5,3.9-2.4,5.7l-2.5,4.9l5.2,1.7c2,0.7,3.9,1.4,5.7,2.3c-1.9,0.9-3.8,1.7-5.7,2.3
					l-5.2,1.7l2.5,4.9c0.9,1.9,1.7,3.8,2.4,5.7c-4.2-1.5-8.2-3.5-12-6.2l-2.8-2l-2.8,2c-3.7,2.6-7.7,4.7-12,6.2
					c0.7-2,1.5-3.9,2.4-5.7l2.5-4.9l-5.2-1.7c-2-0.7-3.9-1.4-5.7-2.3c1.9-0.9,3.8-1.7,5.7-2.3l5.2-1.7L83.7,44
					c-0.9-1.9-1.7-3.8-2.4-5.7c4.2,1.5,8.2,3.5,12,6.2l2.8,2l2.8-2C102.5,41.8,106.5,39.7,110.7,38.3 M117.3,31.7
					c-7.5,1.3-14.9,4.3-21.3,8.9c-6.5-4.6-13.8-7.6-21.3-8.9c0.9,5,2.5,9.9,4.8,14.5c-4.9,1.6-9.5,4-13.6,6.9
					c4.1,2.9,8.7,5.2,13.6,6.9c-2.3,4.6-3.9,9.5-4.8,14.5c7.5-1.3,14.9-4.3,21.3-8.9c6.5,4.6,13.8,7.6,21.3,8.9
					c-0.9-5-2.5-9.9-4.8-14.5c4.9-1.6,9.5-4,13.6-6.9c-4.1-2.9-8.7-5.2-13.6-6.9C114.9,41.5,116.5,36.6,117.3,31.7L117.3,31.7z"/>
			</g>
		</g>
		<g class="st5">
			<ellipse transform="matrix(0.9239 -0.3827 0.3827 0.9239 3.4633 37.5022)" class="st6" cx="96" cy="10" rx="50.1" ry="50.1"/>
			<path class="st7" d="M96-37.7c26.3,0,47.7,21.4,47.7,47.7S122.3,57.8,96,57.8S48.3,36.4,48.3,10S69.7-37.7,96-37.7 M96-42.5
				c-29,0-52.5,23.5-52.5,52.5S67,62.5,96,62.5S148.5,39,148.5,10S125-42.5,96-42.5L96-42.5z"/>
		</g>
	</g>
</g>
</svg>
