<?xml version="1.0" encoding="utf-8"?>
<!-- Generator: Adobe Illustrator 22.1.0, SVG Export Plug-In . SVG Version: 6.00 Build 0)  -->
<svg version="1.1" xmlns="http://www.w3.org/2000/svg" xmlns:xlink="http://www.w3.org/1999/xlink" x="0px" y="0px"
	 viewBox="0 0 192 192" style="enable-background:new 0 0 192 192;" xml:space="preserve">
<style type="text/css">
	.st0{display:none;}
	.st1{display:inline;}
	.st2{fill:#FFFFFF;}
</style>
<g id="Layer_2" class="st0">
	<g class="st1">
		<rect width="192" height="192"/>
	</g>
</g>
<g id="Layer_1">
	<path class="st2" d="M123.2,23.8C127.1,16,129.7,8,131,0c-12.3,2.1-24.5,7.1-35,14.6C85.3,7.1,73.3,2.1,61,0
		c1.5,8.2,4.1,16.2,7.9,23.8C34.5,35.1,9.7,67.5,9.7,105.7c0,46.3,36.5,84.1,82.3,86.2c1.3,0.1,2.6,0.1,4,0.1s2.6,0,4-0.1
		c45.8-2.1,82.3-39.9,82.3-86.2C182.3,67.5,157.5,35.1,123.2,23.8z M130,34.9c-3.1,1.5-6.2,2.8-9.3,3.8l-8.5,2.8l4.1,8.1
		c1.5,3.1,2.8,6.3,3.9,9.4c-6.9-2.5-13.5-5.8-19.7-10.2l-4.6-3.3l-4.6,3.3c-6.1,4.3-12.6,7.7-19.7,10.2c1.1-3.3,2.5-6.4,3.9-9.4
		l4.1-8.1L71,38.6c-3.2-1.1-6.2-2.2-9.1-3.7c-0.1,0-0.2-0.1-0.3-0.1c3.1-1.5,6.3-2.8,9.4-3.8l8.5-2.8l-1.4-3l-1.7-3.7l-0.7-1.4
		c-1.5-3.1-2.8-6.3-3.9-9.4c6.1,2.2,12,5,17.7,8.8c0.7,0.5,1.4,0.9,2,1.4l3.2,2.3l1.4,1l1.4-1l3.3-2.3c0.6-0.5,1.3-0.9,1.9-1.4
		c5.4-3.8,11.3-6.8,17.5-8.8c-1.1,3.3-2.5,6.4-3.9,9.4l-0.7,1.4l-1.9,3.7l-1.5,3l8.5,2.8C124,32.2,127.1,33.4,130,34.9
		C130,34.9,130,34.9,130,34.9z"/>
</g>
</svg>
