<?xml version="1.0" encoding="utf-8"?>
<!-- Generator: Adobe Illustrator 21.1.0, SVG Export Plug-In . SVG Version: 6.00 Build 0)  -->
<svg version="1.1" xmlns="http://www.w3.org/2000/svg" xmlns:xlink="http://www.w3.org/1999/xlink" x="0px" y="0px"
	 viewBox="0 0 192 192" style="enable-background:new 0 0 192 192;" xml:space="preserve">
<style type="text/css">
	.st0{fill:#F3F3F3;}
	.st1{fill:#3F51B5;}
	.st2{fill:#FFFFFF;}
</style>
<g id="plate">
	<circle class="st0" cx="96" cy="96" r="88"/>
</g>
<g id="icon">
	<g>
		<path class="st1" d="M95.8,63.5c22.7,0,40.7,18,40.7,40.7s-18,40.7-40.7,40.7s-40.7-18-40.7-40.7S73.1,63.5,95.8,63.5 M95.8,51.9
			c-29,0-52.3,23.2-52.3,52.3s23.2,52.3,52.3,52.3s52.3-23.2,52.3-52.3S124.8,51.9,95.8,51.9L95.8,51.9z"/>
	</g>
	<circle class="st2" cx="95.8" cy="104.2" r="40.7"/>
	<g>
		<polygon class="st1" points="113.2,34.5 78.3,34.5 78.3,46.1 113.2,46.1 		"/>
	</g>
	<g>
		<polygon class="st1" points="101.6,75.2 89.9,75.2 89.9,110 101.6,110 		"/>
	</g>
	<g>
		<polygon class="st1" points="113.2,98.4 89.9,98.4 89.9,110 113.2,110 		"/>
	</g>
	<g>
		<polygon class="st1" points="140.5,51.3 124.2,67.6 132.4,75.7 148.6,59.5 		"/>
	</g>
</g>
</svg>
