<?xml version="1.0" encoding="utf-8"?>
<!-- Generator: Adobe Illustrator 21.1.0, SVG Export Plug-In . SVG Version: 6.00 Build 0)  -->
<svg version="1.1" id="Layer_1" xmlns="http://www.w3.org/2000/svg" xmlns:xlink="http://www.w3.org/1999/xlink" x="0px" y="0px"
	 viewBox="0 0 24 24" style="enable-background:new 0 0 24 24;" xml:space="preserve">
<style type="text/css">
	.st0{fill:#3F51B5;}
	.st1{fill:#FFFFFF;}
</style>
<g>
	<path class="st0" d="M12,6c3.9,0,7,3.1,7,7s-3.1,7-7,7s-7-3.1-7-7S8.1,6,12,6 M12,4c-5,0-9,4-9,9s4,9,9,9s9-4,9-9S17,4,12,4L12,4z"
		/>
</g>
<circle class="st1" cx="12" cy="13" r="7"/>
<g>
	<polygon class="st0" points="15,1 9,1 9,3 15,3 	"/>
</g>
<g>
	<polygon class="st0" points="13,8 11,8 11,14 13,14 	"/>
</g>
<g>
	<polygon class="st0" points="15,12 11,12 11,14 15,14 	"/>
</g>
<g>
	<polygon class="st0" points="19.7,3.9 16.9,6.7 18.3,8.1 21.1,5.3 	"/>
</g>
</svg>
